<?xml version="1.0" encoding="UTF-8" standalone="no"?>
<!-- Generator: Adobe Illustrator 19.1.0, SVG Export Plug-In . SVG Version: 6.00 Build 0)  -->

<svg
   xmlns:dc="http://purl.org/dc/elements/1.1/"
   xmlns:cc="http://creativecommons.org/ns#"
   xmlns:rdf="http://www.w3.org/1999/02/22-rdf-syntax-ns#"
   xmlns:svg="http://www.w3.org/2000/svg"
   xmlns="http://www.w3.org/2000/svg"
   xmlns:sodipodi="http://sodipodi.sourceforge.net/DTD/sodipodi-0.dtd"
   xmlns:inkscape="http://www.inkscape.org/namespaces/inkscape"
   version="1.1"
   id="Lager_1"
   x="0px"
   y="0px"
   viewBox="0 0 476.59999 182.98378"
   xml:space="preserve"
   inkscape:version="0.91 r13725"
   sodipodi:docname="BioExcel_logo.svg"
   width="476.60001"
   height="182.98378"><metadata
     id="metadata31"><rdf:RDF><cc:Work
         rdf:about=""><dc:format>image/svg+xml</dc:format><dc:type
           rdf:resource="http://purl.org/dc/dcmitype/StillImage" /><dc:title></dc:title></cc:Work></rdf:RDF></metadata><defs
     id="defs29" /><sodipodi:namedview
     pagecolor="#ffffff"
     bordercolor="#666666"
     borderopacity="1"
     objecttolerance="10"
     gridtolerance="10"
     guidetolerance="10"
     inkscape:pageopacity="0"
     inkscape:pageshadow="2"
     inkscape:window-width="1920"
     inkscape:window-height="1016"
     id="namedview27"
     showgrid="false"
     fit-margin-top="0"
     fit-margin-left="0"
     fit-margin-right="0"
     fit-margin-bottom="0"
     inkscape:zoom="1.1946935"
     inkscape:cx="248.12408"
     inkscape:cy="36.133784"
     inkscape:window-x="0"
     inkscape:window-y="27"
     inkscape:window-maximized="1"
     inkscape:current-layer="Lager_1" /><style
     type="text/css"
     id="style3">
	.st0{fill:#717171;}
	.st1{opacity:0.85;fill:#FFA400;enable-background:new    ;}
	.st2{opacity:0.77;fill:#009A44;enable-background:new    ;}
</style><g
     id="g5"
     transform="translate(-174.5,-150.8)"><path
       class="st0"
       d="m 227.2,205.6 c 13.4,0 22.9,4.2 28.6,12.6 3.6,5.4 5.5,12 5.5,19.8 0,10.6 -2.9,18.7 -8.7,24.2 -5.7,5.5 -14.2,8.2 -25.4,8.2 -14,0 -23.7,-4.4 -29.3,-13.1 l 0,4.4 c 0,2.1 -0.8,3.9 -2.3,5.4 -1.5,1.5 -3.3,2.3 -5.5,2.3 l -15.6,0 0,-4.1 15.6,0 c 0.8,0 1.5,-0.4 2.1,-1.1 0.6,-0.7 0.8,-1.6 0.8,-2.5 l 0,-76.9 c 0,-1 -0.3,-1.8 -0.8,-2.6 -0.6,-0.7 -1.3,-1.1 -2.1,-1.1 l -3,0 0,-4 3,0 c 2.2,0 4,0.8 5.5,2.3 1.5,1.5 2.3,3.3 2.3,5.4 l 0,34.3 c 5.6,-9 15.4,-13.5 29.3,-13.5 z m 0,60.8 c 19.6,0 29.3,-9.5 29.3,-28.4 0,-6.9 -1.6,-12.7 -4.8,-17.4 -4.9,-7.3 -13.1,-11 -24.6,-11 -11.5,0 -19.7,3.7 -24.6,11 -3.1,4.7 -4.7,10.5 -4.7,17.4 0.1,18.9 9.9,28.4 29.4,28.4 z"
       id="path7"
       inkscape:connector-curvature="0"
       style="fill:#717171" /><path
       class="st0"
       d="m 276.9,206.6 0,62.8 -4.9,0 0,-62.8 4.9,0 0,0 z"
       id="path9"
       inkscape:connector-curvature="0"
       style="fill:#717171" /><path
       class="st0"
       d="m 321.9,205.5 c 13.4,0 22.9,4.2 28.6,12.6 3.7,5.4 5.5,12 5.5,19.9 0,10.6 -2.9,18.7 -8.7,24.2 -5.8,5.5 -14.3,8.3 -25.5,8.3 -11.2,0 -19.7,-2.8 -25.5,-8.3 -5.8,-5.5 -8.7,-13.6 -8.7,-24.2 0,-7.9 1.8,-14.5 5.5,-19.9 5.9,-8.4 15.4,-12.6 28.8,-12.6 z m 0,61 c 19.6,0 29.3,-9.5 29.3,-28.5 0,-6.9 -1.6,-12.7 -4.7,-17.5 -4.9,-7.3 -13.1,-11 -24.6,-11 -11.5,0 -19.7,3.7 -24.6,11 -3.1,4.8 -4.7,10.6 -4.7,17.5 0,19 9.8,28.5 29.3,28.5 z"
       id="path11"
       inkscape:connector-curvature="0"
       style="fill:#717171" /><path
       class="st0"
       d="m 433.2,239.9 -63.5,0 c 0.7,17.6 10.5,26.4 29.3,26.4 6.9,0 12.8,-1.2 17.6,-3.6 2.5,-1.2 4.2,-2.5 5.2,-3.7 0.5,-0.6 0.8,-1.4 0.8,-2.1 l 0,-4.8 4.9,0 0,4.8 c 0,1.6 -0.5,3 -1.6,4.4 -1.3,1.6 -3.4,3.2 -6.3,4.7 -5.6,3 -12.4,4.4 -20.6,4.4 -11.2,0 -19.7,-2.8 -25.5,-8.3 -5.8,-5.5 -8.7,-13.6 -8.7,-24.2 0,-7.9 1.8,-14.5 5.5,-19.9 5.7,-8.4 15.2,-12.6 28.6,-12.6 13.4,0 22.9,4.2 28.6,12.6 3.7,5.4 5.5,12 5.5,19.9 l 0,2 0.2,0 z m -34.1,-30.5 c -10.7,0 -18.5,3.1 -23.5,9.4 -3.5,4.4 -5.5,10.1 -5.8,17.1 l 58.6,0 c -0.4,-7 -2.3,-12.6 -5.9,-17.1 -4.9,-6.3 -12.8,-9.4 -23.4,-9.4 z"
       id="path13"
       inkscape:connector-curvature="0"
       style="fill:#717171" /></g><ellipse
     class="st1"
     cx="266.60001"
     cy="20.800007"
     rx="16"
     ry="16.6"
     id="ellipse15"
     style="opacity:0.85;fill:#ffa400;enable-background:new" /><path
     class="st0"
     d="m 361,98.6 4.8,0 0,7 c 0,2 -0.7,3.9 -2,5.6 -1.2,1.5 -3.3,3 -6.1,4.4 -5.5,2.8 -12.3,4.2 -20.4,4.2 -11.6,0 -20.3,-3.4 -26.3,-10.3 -5.1,-5.8 -7.6,-13.2 -7.6,-22.1 0,-9 2.5,-16.4 7.6,-22.2 6,-6.9 14.8,-10.4 26.3,-10.4 8.1,0 14.9,1.4 20.4,4.2 2.9,1.5 4.9,3 6.2,4.5 1.3,1.7 1.9,3.6 1.9,5.6 l 0,6.8 -4.8,0 0,-6.8 c 0,-1.2 -0.4,-2.4 -1.2,-3.3 -1,-1.2 -2.7,-2.3 -5.1,-3.5 -4.7,-2.3 -10.5,-3.4 -17.4,-3.4 -11.6,0 -19.8,3.9 -24.7,11.7 -2.9,4.8 -4.4,10.4 -4.4,16.8 0,6.4 1.5,12 4.4,16.7 4.9,7.8 13.1,11.7 24.7,11.7 6.9,0 12.7,-1.1 17.4,-3.3 2.5,-1.2 4.2,-2.3 5.1,-3.5 0.8,-1 1.2,-2.1 1.2,-3.3 l 0,-7.1 0,0 z"
     id="path17"
     inkscape:connector-curvature="0"
     style="fill:#717171" /><path
     class="st0"
     d="m 442.7,89.1 -63.5,0 c 0.7,17.6 10.5,26.4 29.3,26.4 6.9,0 12.8,-1.2 17.6,-3.6 2.5,-1.2 4.2,-2.5 5.2,-3.7 0.5,-0.6 0.8,-1.4 0.8,-2.1 l 0,-4.8 4.9,0 0,4.8 c 0,1.6 -0.5,3 -1.6,4.4 -1.3,1.6 -3.4,3.2 -6.3,4.7 -5.6,3 -12.4,4.4 -20.6,4.4 -11.2,0 -19.7,-2.8 -25.5,-8.3 -5.8,-5.5 -8.7,-13.6 -8.7,-24.2 0,-7.9 1.8,-14.5 5.5,-19.9 5.7,-8.4 15.2,-12.6 28.6,-12.6 13.4,0 22.9,4.2 28.6,12.6 3.7,5.4 5.5,12 5.5,19.9 l 0,2 0.2,0 z M 408.6,58.6 c -10.7,0 -18.5,3.1 -23.5,9.4 -3.5,4.4 -5.5,10.1 -5.8,17.1 l 58.6,0 c -0.4,-7 -2.3,-12.6 -5.9,-17.1 -4.9,-6.3 -12.8,-9.4 -23.4,-9.4 z"
     id="path19"
     inkscape:connector-curvature="0"
     style="fill:#717171" /><path
     class="st2"
     d="m 228,3.1 c 0,0 10.9,30.5 37.4,49.1 26.5,18.6 34.2,27.3 54.5,46.5 14.2,13.4 11.8,32.2 8,46.9 -3.8,14.7 2.8,-16 -20.4,-34.6 C 301.1,105.9 278.3,87.7 255.8,68.3 235.9,51 219.1,28.3 228,3.1 Z"
     id="path21"
     inkscape:connector-curvature="0"
     style="opacity:0.76999996;fill:#009a44;enable-background:new" /><path
     class="st1"
     d="m 310.2,0 c 0,0 15.8,31.9 -6.3,62.5 -24.5,33.9 -45.9,54.4 -62.1,72.9 -11.3,12.9 -14.9,37.8 -10.2,46.4 4.7,8.6 -20.1,-31.5 1.8,-60.7 C 249.6,99.4 277,68 293.4,47.6 306.6,31.1 315.8,25.5 310.2,0 Z"
     id="path23"
     inkscape:connector-curvature="0"
     style="opacity:0.85;fill:#ffa400;enable-background:new" /><path
     class="st0"
     d="m 453.2,68.9 0,-34.3 c 0,-2.1 0.8,-3.9 2.3,-5.4 1.5,-1.5 3.3,-2.3 5.5,-2.3 l 3,0 0,4 -3,0 c -0.8,0 -1.5,0.4 -2.1,1.1 -0.6,0.7 -0.8,1.6 -0.8,2.6 l 0,76.9 c 0,0.9 0.3,1.8 0.8,2.5 0.6,0.7 1.3,1.1 2.1,1.1 l 15.6,0 0,4.1 -15.6,0 c -2.2,0 -4,-0.8 -5.5,-2.3 -1.5,-1.5 -2.3,-3.3 -2.3,-5.4 l 0,-4.4 0,-38.2 z"
     id="path25"
     inkscape:connector-curvature="0"
     style="fill:#717171" /></svg>